<svg
							width="174"
							height="18"
							viewBox="0 0 174 18"
							fill="none"
							xmlns="http://www.w3.org/2000/svg"
						>
							<path
								fill-rule="evenodd"
								clip-rule="evenodd"
								d="M24.1883 17.7336C24.2184 15.5144 24.5025 14.5449 25.389 13.2078L30.0071 17.7336H33.794C35.2222 17.7336 36.3801 16.5757 36.3801 15.1474V2.58615C36.3801 1.15786 35.2222 0 33.794 0H20.5861C19.1579 0 18 1.15786 18 2.58615V15.1474C18 16.5757 19.1579 17.7336 20.5861 17.7336H24.1883ZM34.1634 14.778C34.1634 15.3901 33.6672 15.8863 33.0551 15.8863H31.3589C31.2621 15.8863 31.1691 15.8483 31.1 15.7805L26.1279 10.8988C24.3405 12.4875 23.7527 13.6523 23.2647 15.8863H21.2327C20.6206 15.8863 20.1243 15.3901 20.1243 14.778V3.04796C20.1243 2.43583 20.6206 1.93961 21.2327 1.93961H33.0551C33.6672 1.93961 34.1634 2.43583 34.1634 3.04796V14.778Z"
								fill="#F06937"
							/>
							<path
								d="M45.524 0H47.6483V14.6856C47.6483 15.2977 48.1445 15.794 48.7567 15.794H60.579C61.1912 15.794 61.6874 15.2977 61.6874 14.6856V0H63.9041V15.0551C63.9041 16.4834 62.7462 17.6412 61.3179 17.6412H48.1101C46.6818 17.6412 45.524 16.4834 45.524 15.0551V0Z"
								fill="#F06937"
							/>
							<path
								fill-rule="evenodd"
								clip-rule="evenodd"
								d="M89.2114 10.8064V17.7336H91.4281V2.58615C91.4281 1.15786 90.2702 0 88.8419 0H75.5417C74.1135 0 72.9556 1.15786 72.9556 2.58615V17.7336H75.1723V10.8064H89.2114ZM89.2114 8.5897H75.1723V2.9556C75.1723 2.34347 75.6685 1.84725 76.2806 1.84725H88.103C88.7151 1.84725 89.2114 2.34347 89.2114 2.9556V8.5897Z"
								fill="#F06937"
							/>
							<path
								d="M100.48 0V1.84725H108.607V17.7336H110.824V1.84725H118.952V0H100.48Z"
								fill="#F06937"
							/>
							<path
								fill-rule="evenodd"
								clip-rule="evenodd"
								d="M128.004 17.7336V2.58615C128.004 1.15786 129.161 0 130.59 0H139.549C140.977 0 142.135 1.15786 142.135 2.58615V8.49734H143.059C144.895 8.49734 146.384 9.98601 146.384 11.8224V17.7336H144.259V11.8224C144.259 11.2103 143.763 10.714 143.151 10.714H130.22V17.7336H128.004ZM131.329 1.84725C130.716 1.84725 130.22 2.34347 130.22 2.9556V8.49734H139.918V2.9556C139.918 2.34347 139.422 1.84725 138.81 1.84725H131.329Z"
								fill="#F06937"
							/>
							<path
								d="M155.528 0H157.744V14.6856C157.744 15.2977 158.24 15.794 158.853 15.794H170.589C171.199 15.794 171.694 15.3017 171.697 14.6921L171.783 0H174L173.921 15.1609C173.914 16.5839 172.758 17.7336 171.335 17.7336H158.193C156.77 17.7336 155.614 16.5839 155.606 15.1609L155.528 0Z"
								fill="#F06937"
							/>
							<path
								d="M4.28766 12.392V8.90403H0.847656V7.91203H4.28766V4.50403H5.31166V7.91203H8.75166V8.90403H5.31166V12.392H4.28766Z"
								fill="#3B4B5D"
							/>
						</svg>